<?xml version="1.0" standalone="no"?>
<!DOCTYPE svg PUBLIC "-//W3C//DTD SVG 1.1//EN" "http://www.w3.org/Graphics/SVG/1.1/DTD/svg11.dtd" >
<svg xmlns="http://www.w3.org/2000/svg" xmlns:xlink="http://www.w3.org/1999/xlink" version="1.1">
<metadata></metadata>
<defs>
<font id="power_greenregular" horiz-adv-x="942" >
<font-face units-per-em="2048" ascent="1638" descent="-410" />
<missing-glyph horiz-adv-x="471" />
<glyph horiz-adv-x="0" />
<glyph horiz-adv-x="682" />
<glyph unicode=" "  horiz-adv-x="471" />
<glyph unicode="&#x09;" horiz-adv-x="471" />
<glyph unicode="&#xa0;" horiz-adv-x="471" />
<glyph unicode="!" horiz-adv-x="471" d="M157 0v157h157v-157h-157zM157 471v1099h157v-1099h-157z" />
<glyph unicode="&#x22;" horiz-adv-x="628" d="M0 942v628h157v-628h-157zM314 942v628h157v-628h-157z" />
<glyph unicode="#" horiz-adv-x="1413" d="M0 471v157h314v314h-314v157h471v471h157v-471h314v471h157v-471h157v-157h-314v-314h314v-157h-471v-471h-157v471h-314v-471h-157v471h-157zM471 628h314v314h-314v-314z" />
<glyph unicode="$" d="M0 157v157h157v157h-157v157h157v942h471v-157h-314v-471h314v-157h-314v-157h314v-157h-314v-157h314v-157h-314v-157h-157v157h-157zM628 942v471h157v-471h-157z" />
<glyph unicode="%" d="M0 0v314h157v-314h-157zM0 942v628h471v-314h157v-314h-157v157h-157v314h-157v-314h157v-157h-314zM157 314v314h157v-157h157v-314h157v314h-157v157h314v-628h-471v314h-157zM314 628v314h157v-314h-157zM628 1256v314h157v-314h-157z" />
<glyph unicode="&#x26;" d="M0 157v314h157v-314h-157zM157 0v157h314v-157h-314zM157 471v157h157v-157h-157zM157 942v314h157v-314h-157zM314 628v314h157v-314h-157zM314 1256v157h157v-157h-157zM471 157v471h157v-471h-157zM471 942v314h157v-314h-157zM628 0v157h157v-157h-157zM628 628v157 h157v-157h-157z" />
<glyph unicode="'" horiz-adv-x="471" d="M0 942v157h157v-157h-157zM0 1256v314h314v-471h-157v157h-157z" />
<glyph unicode="(" horiz-adv-x="471" d="M0 -157v1570h157v-1570h-157zM157 -157h157v-157h-157v157zM157 1413v157h157v-157h-157z" />
<glyph unicode=")" horiz-adv-x="628" d="M157 -157h157v-157h-157v157zM157 1413v157h157v-157h-157zM314 -157v1570h157v-1570h-157z" />
<glyph unicode="*" d="M0 314v157h157v-157h-157zM0 628v157h157v157h157v157h157v-157h157v-157h157v-157h-157v-157h-157v-157h-157v157h-157v157h-157zM0 942v157h157v-157h-157zM628 314v157h157v-157h-157zM628 942v157h157v-157h-157z" />
<glyph unicode="+" d="M0 628v157h314v314h157v-314h314v-157h-314v-314h-157v314h-314z" />
<glyph unicode="," horiz-adv-x="471" d="M0 0v314h314v-471h-157v157h-157zM0 -157h157v-157h-157v157z" />
<glyph unicode="-" d="M0 628v157h785v-157h-785z" />
<glyph unicode="." horiz-adv-x="471" d="M0 0v314h314v-314h-314z" />
<glyph unicode="/" d="M0 0v314h157v-314h-157zM157 314v314h157v-314h-157zM314 628v314h157v-314h-157zM471 942v314h157v-314h-157zM628 1256v314h157v-314h-157z" />
<glyph unicode="0" d="M0 157v1099h157v-1099h-157zM157 0v157h471v-157h-471zM157 1256v157h471v-157h-471zM628 157v1099h157v-1099h-157z" />
<glyph unicode="1" d="M157 0v157h157v1099h-157v157h314v-1256h157v-157h-471z" />
<glyph unicode="2" d="M0 0v314h157v-157h628v-157h-785zM0 1099v157h157v-157h-157zM157 314v157h157v-157h-157zM157 1256v157h471v-157h-471zM314 471v157h157v-157h-157zM471 628v157h157v-157h-157zM628 785v471h157v-471h-157z" />
<glyph unicode="3" d="M0 157v157h157v-157h-157zM0 1099v157h157v-157h-157zM157 0v157h471v-157h-471zM157 1256v157h471v-157h-471zM314 628v157h314v-157h-314zM628 157v471h157v-471h-157zM628 785v471h157v-471h-157z" />
<glyph unicode="4" d="M0 314v785h157v-628h314v785h-157v157h314v-942h157v-157h-157v-314h-157v314h-471zM157 1099v157h157v-157h-157z" />
<glyph unicode="5" d="M0 0v157h628v-157h-628zM0 628v785h785v-157h-628v-471h471v-157h-628zM628 157v471h157v-471h-157z" />
<glyph unicode="6" d="M0 157v1099h157v-471h471v-157h-471v-471h-157zM157 0v157h471v-157h-471zM157 1256v157h471v-157h-471zM628 157v471h157v-471h-157zM628 1099v157h157v-157h-157z" />
<glyph unicode="7" d="M0 1256v157h785v-628h-157v471h-628zM314 0v314h157v-314h-157zM471 314v471h157v-471h-157z" />
<glyph unicode="8" d="M0 157v471h157v-471h-157zM0 785v471h157v-471h-157zM157 0v157h471v-157h-471zM157 628v157h471v-157h-471zM157 1256v157h471v-157h-471zM628 157v471h157v-471h-157zM628 785v471h157v-471h-157z" />
<glyph unicode="9" d="M0 157v157h157v-157h-157zM0 785v471h157v-471h-157zM157 0v157h471v-157h-471zM157 628v157h471v471h157v-1099h-157v471h-471zM157 1256v157h471v-157h-471z" />
<glyph unicode=":" horiz-adv-x="471" d="M0 157v314h314v-314h-314zM0 785v314h314v-314h-314z" />
<glyph unicode=";" horiz-adv-x="471" d="M0 0h157v-157h-157v157zM0 157v314h314v-471h-157v157h-157zM0 785v314h314v-314h-314z" />
<glyph unicode="&#x3c;" d="M0 628v314h157v-314h-157zM157 471v157h157v-157h-157zM157 942v157h157v-157h-157zM314 314v157h157v-157h-157zM314 1099v157h157v-157h-157zM471 157v157h157v-157h-157zM471 1256v157h157v-157h-157zM628 0v157h157v-157h-157zM628 1413v157h157v-157h-157z" />
<glyph unicode="=" horiz-adv-x="1099" d="M157 314v157h785v-157h-785zM157 785v157h785v-157h-785z" />
<glyph unicode="&#x3e;" d="M0 0v157h157v-157h-157zM0 1413v157h157v-157h-157zM157 157v157h157v-157h-157zM157 1256v157h157v-157h-157zM314 314v157h157v-157h-157zM314 1099v157h157v-157h-157zM471 471v157h157v-157h-157zM471 942v157h157v-157h-157zM628 628v314h157v-314h-157z" />
<glyph unicode="?" d="M0 1099v314h157v-314h-157zM157 1413v157h471v-157h-471zM314 0v157h157v-157h-157zM314 471v314h157v-314h-157zM471 785v157h157v-157h-157zM628 942v471h157v-471h-157z" />
<glyph unicode="@" horiz-adv-x="1413" d="M0 314v785h157v-785h-157zM157 157v157h157v-157h-157zM157 1099v157h157v-157h-157zM314 0v157h942v-157h-942zM314 471v471h157v-471h-157zM314 1256v157h628v-157h-628zM471 314v157h157v-157h-157zM471 942v157h471v-628h157v-157h-314v157h-157v157h157v314h-314z M942 1099v157h157v-157h-157zM1099 471v628h157v-628h-157z" />
<glyph unicode="A" d="M0 0v1256h157v-628h471v628h157v-1256h-157v471h-471v-471h-157zM157 1256v157h471v-157h-471z" />
<glyph unicode="B" d="M0 0v1413h628v-157h-471v-471h471v-157h-471v-471h471v-157h-628zM628 157v471h157v-471h-157zM628 785v471h157v-471h-157z" />
<glyph unicode="C" d="M0 157v1099h157v-1099h-157zM157 0v157h471v-157h-471zM157 1256v157h471v-157h-471zM628 157v157h157v-157h-157zM628 1099v157h157v-157h-157z" />
<glyph unicode="D" d="M0 0v1413h628v-157h-471v-1099h471v-157h-628zM628 157v1099h157v-1099h-157z" />
<glyph unicode="E" d="M0 0v1413h785v-157h-628v-471h471v-157h-471v-471h628v-157h-785z" />
<glyph unicode="F" d="M0 0v1413h785v-157h-628v-471h471v-157h-471v-628h-157z" />
<glyph unicode="G" d="M0 157v1099h157v-1099h-157zM157 0v157h471v-157h-471zM157 1256v157h471v-157h-471zM471 471v157h314v-471h-157v314h-157zM628 1099v157h157v-157h-157z" />
<glyph unicode="H" d="M0 0v1413h157v-628h471v628h157v-1413h-157v628h-471v-628h-157z" />
<glyph unicode="I" d="M0 0v157h314v1099h-314v157h785v-157h-314v-1099h314v-157h-785z" />
<glyph unicode="J" d="M0 157v157h157v-157h-157zM157 0v157h471v-157h-471zM628 157v1256h157v-1256h-157z" />
<glyph unicode="K" d="M0 0v1413h157v-471h157v-471h-157v-471h-157zM314 314v157h157v-157h-157zM314 942v157h157v-157h-157zM471 157v157h157v-157h-157zM471 1099v157h157v-157h-157zM628 0v157h157v-157h-157zM628 1256v157h157v-157h-157z" />
<glyph unicode="L" d="M0 0v1413h157v-1256h628v-157h-785z" />
<glyph unicode="M" d="M0 0v1413h157v-157h157v-314h-157v-942h-157zM314 628v314h157v-314h-157zM471 942v314h157v157h157v-1413h-157v942h-157z" />
<glyph unicode="N" d="M0 0v1413h157v-157h157v-314h-157v-942h-157zM314 628v314h157v-314h-157zM471 314v314h157v785h157v-1413h-157v314h-157z" />
<glyph unicode="O" d="M0 157v1099h157v-1099h-157zM157 0v157h471v-157h-471zM157 1256v157h471v-157h-471zM628 157v1099h157v-1099h-157z" />
<glyph unicode="P" d="M0 0v1413h628v-157h-471v-628h471v-157h-471v-471h-157zM628 628v628h157v-628h-157z" />
<glyph unicode="Q" horiz-adv-x="1099" d="M0 157v1099h157v-785h314v-157h-314v-157h-157zM157 0v157h314v157h157v942h157v-1099h-157v-157h-471zM157 1256v157h471v-157h-471zM785 0v157h157v-157h-157z" />
<glyph unicode="R" d="M0 0v1413h628v-157h-471v-628h471v-157h-157v-157h-157v157h-157v-471h-157zM471 157v157h157v-157h-157zM628 0v157h157v-157h-157zM628 628v628h157v-628h-157z" />
<glyph unicode="S" d="M0 157v157h157v-157h-157zM0 785v471h157v-471h-157zM157 0v157h471v-157h-471zM157 628v157h471v-157h-471zM157 1256v157h471v-157h-471zM628 157v471h157v-471h-157zM628 1099v157h157v-157h-157z" />
<glyph unicode="T" d="M0 1256v157h785v-157h-314v-1256h-157v1256h-314z" />
<glyph unicode="U" d="M0 157v1256h157v-1256h-157zM157 0v157h471v-157h-471zM628 157v1256h157v-1256h-157z" />
<glyph unicode="V" d="M0 628v785h157v-785h-157zM157 314v314h157v-314h-157zM314 0v314h157v-314h-157zM471 314v314h157v-314h-157zM628 628v785h157v-785h-157z" />
<glyph unicode="W" d="M0 0v1413h157v-942h157v-314h-157v-157h-157zM314 471v314h157v-314h-157zM471 157v314h157v942h157v-1413h-157v157h-157z" />
<glyph unicode="X" d="M0 0v314h157v-314h-157zM0 1099v314h157v-314h-157zM157 314v314h157v-314h-157zM157 785v314h157v-314h-157zM314 628v157h157v-157h-157zM471 314v314h157v-314h-157zM471 785v314h157v-314h-157zM628 0v314h157v-314h-157zM628 1099v314h157v-314h-157z" />
<glyph unicode="Y" d="M0 942v471h157v-471h-157zM157 628v314h157v-314h-157zM314 0v628h157v-628h-157zM471 628v314h157v-314h-157zM628 942v471h157v-471h-157z" />
<glyph unicode="Z" d="M0 0v314h157v-157h628v-157h-785zM0 1256v157h785v-314h-157v157h-628zM157 314v314h157v-314h-157zM314 628v157h157v-157h-157zM471 785v314h157v-314h-157z" />
<glyph unicode="[" horiz-adv-x="628" d="M0 -314v1884h471v-157h-314v-1570h314v-157h-471z" />
<glyph unicode="\" d="M0 1256v314h157v-314h-157zM157 942v314h157v-314h-157zM314 628v314h157v-314h-157zM471 314v314h157v-314h-157zM628 0v314h157v-314h-157z" />
<glyph unicode="]" horiz-adv-x="628" d="M0 -157h314v1570h-314v157h471v-1884h-471v157z" />
<glyph unicode="^" d="M0 1099v157h157v-157h-157zM157 1256v157h157v-157h-157zM314 1413v157h157v-157h-157zM471 1256v157h157v-157h-157zM628 1099v157h157v-157h-157z" />
<glyph unicode="_" d="M0 0v157h785v-157h-785z" />
<glyph unicode="`" horiz-adv-x="628" d="M0 1256v157h157v-157h-157zM157 1099v157h157v-157h-157zM314 942v157h157v-157h-157z" />
<glyph unicode="a" d="M0 157v314h157v-314h-157zM157 0v157h471v314h-471v157h471v157h157v-785h-628zM157 785v157h471v-157h-471z" />
<glyph unicode="b" d="M0 0v1413h157v-471h471v-157h-471v-628h471v-157h-628zM628 157v628h157v-628h-157z" />
<glyph unicode="c" d="M0 157v628h157v-628h-157zM157 0v157h471v-157h-471zM157 785v157h471v-157h-471zM628 157v157h157v-157h-157zM628 628v157h157v-157h-157z" />
<glyph unicode="d" d="M0 157v628h157v-628h-157zM157 0v157h471v628h-471v157h471v471h157v-1413h-628z" />
<glyph unicode="e" d="M0 157v628h157v-157h471v157h157v-314h-628v-314h-157zM157 0v157h471v-157h-471zM157 785v157h471v-157h-471zM628 157v157h157v-157h-157z" />
<glyph unicode="f" d="M0 785v157h314v314h157v-314h314v-157h-314v-785h-157v785h-314zM471 1256v157h314v-157h-314z" />
<glyph unicode="g" d="M0 0h157v-157h-157v157zM0 314v471h157v-471h-157zM157 157v157h471v471h157v-942h-157v314h-471zM157 -157h471v-157h-471v157zM157 785v157h471v-157h-471z" />
<glyph unicode="h" d="M0 0v1413h157v-471h471v-157h-471v-785h-157zM628 0v785h157v-785h-157z" />
<glyph unicode="i" horiz-adv-x="471" d="M157 0v942h157v-942h-157zM157 1256v157h157v-157h-157z" />
<glyph unicode="j" horiz-adv-x="785" d="M0 0h157v-157h-157v157zM157 -157h314v-157h-314v157zM471 -157v1099h157v-1099h-157zM471 1256v157h157v-157h-157z" />
<glyph unicode="k" d="M0 0v1413h157v-942h157v157h157v-314h-314v-314h-157zM471 157v157h157v-157h-157zM471 628v157h157v-157h-157zM628 0v157h157v-157h-157zM628 785v157h157v-157h-157z" />
<glyph unicode="l" horiz-adv-x="471" d="M157 0v1413h157v-1413h-157z" />
<glyph unicode="m" d="M0 0v942h628v-157h-157v-785h-157v785h-157v-785h-157zM628 0v785h157v-785h-157z" />
<glyph unicode="n" d="M0 0v942h628v-157h-471v-785h-157zM628 0v785h157v-785h-157z" />
<glyph unicode="o" d="M0 157v628h157v-628h-157zM157 0v157h471v-157h-471zM157 785v157h471v-157h-471zM628 157v628h157v-628h-157z" />
<glyph unicode="p" d="M0 -314v1256h628v-157h-471v-471h471v-157h-471v-471h-157zM628 314v471h157v-471h-157z" />
<glyph unicode="q" d="M0 314v471h157v-471h-157zM157 157v157h471v471h-471v157h628v-1256h-157v471h-471z" />
<glyph unicode="r" horiz-adv-x="785" d="M0 0v942h157v-157h157v-157h-157v-628h-157zM314 785v157h314v-157h-314z" />
<glyph unicode="s" d="M0 157v157h157v-157h-157zM0 628v157h157v-157h-157zM157 0v157h471v-157h-471zM157 471v157h157v-157h-157zM157 785v157h471v-157h-471zM314 314v157h314v-157h-314zM628 157v157h157v-157h-157zM628 628v157h157v-157h-157z" />
<glyph unicode="t" d="M0 785v157h314v314h157v-314h314v-157h-314v-628h-157v628h-314zM471 0v157h314v-157h-314z" />
<glyph unicode="u" d="M0 157v785h157v-785h-157zM157 0v157h471v785h157v-942h-628z" />
<glyph unicode="v" d="M0 471v471h157v-471h-157zM157 157v314h157v-314h-157zM314 0v157h157v-157h-157zM471 157v314h157v-314h-157zM628 471v471h157v-471h-157z" />
<glyph unicode="w" d="M0 157v785h157v-785h-157zM157 0v157h157v-157h-157zM314 157v785h157v-785h-157zM471 0v157h157v-157h-157zM628 157v785h157v-785h-157z" />
<glyph unicode="x" d="M0 0v157h157v-157h-157zM0 785v157h157v-157h-157zM157 157v157h157v-157h-157zM157 628v157h157v-157h-157zM314 314v314h157v-314h-157zM471 157v157h157v-157h-157zM471 628v157h157v-157h-157zM628 0v157h157v-157h-157zM628 785v157h157v-157h-157z" />
<glyph unicode="y" d="M0 0h157v-157h-157v157zM0 314v628h157v-628h-157zM157 157v157h471v628h157v-1099h-157v314h-471zM157 -157h471v-157h-471v157z" />
<glyph unicode="z" d="M0 0v314h157v-157h628v-157h-785zM0 785v157h785v-157h-157v-157h-157v157h-471zM157 314v157h157v-157h-157zM314 471v157h157v-157h-157z" />
<glyph unicode="{" horiz-adv-x="628" d="M0 628v157h157v-157h-157zM157 -157v785h157v-785h-157zM157 785v628h157v-628h-157zM314 -157h157v-157h-157v157zM314 1413v157h157v-157h-157z" />
<glyph unicode="|" horiz-adv-x="471" d="M157 -157v1727h157v-1727h-157z" />
<glyph unicode="}" horiz-adv-x="628" d="M0 -157h157v-157h-157v157zM0 1413v157h157v-157h-157zM157 -157v785h157v-785h-157zM157 785v628h157v-628h-157zM314 628v157h157v-157h-157z" />
<glyph unicode="~" horiz-adv-x="1099" d="M0 628v157h157v-157h-157zM157 785v157h314v-157h-314zM471 628v157h314v-157h-314zM785 785v157h157v-157h-157z" />
<glyph unicode="&#xa1;" horiz-adv-x="471" d="M157 -314v1099h157v-1099h-157zM157 1099v157h157v-157h-157z" />
<glyph unicode="&#xa2;" d="M0 0h157v-157h-157v157zM0 157v628h157v-471h157v-157h314v-157h-471v157h-157zM157 785v157h471v-157h157v-157h-314v157h-314zM314 314v314h157v-314h-157zM628 157v157h157v-157h-157zM628 942v157h157v-157h-157z" />
<glyph unicode="&#xa3;" d="M0 0v314h157v-157h628v-157h-785zM0 628v157h157v471h157v-471h314v-157h-314v-314h-157v314h-157zM314 1256v157h314v-157h-314zM628 1099v157h157v-157h-157z" />
<glyph unicode="&#xa4;" horiz-adv-x="1099" d="M0 157v157h157v-157h-157zM0 471v314h157v-314h-157zM0 942v157h157v-157h-157zM157 314v157h157v-157h-157zM157 785v157h157v-157h-157zM314 157v157h314v-157h-314zM314 942v157h314v-157h-314zM628 314v157h157v-157h-157zM628 785v157h157v-157h-157zM785 157v157 h157v-157h-157zM785 471v314h157v-314h-157zM785 942v157h157v-157h-157z" />
<glyph unicode="&#xa5;" d="M0 314v157h314v157h-314v157h157v157h157v-157h157v157h157v-157h157v-157h-314v-157h314v-157h-314v-314h-157v314h-314zM0 942v471h157v-471h-157zM628 942v471h157v-471h-157z" />
<glyph unicode="&#xa6;" horiz-adv-x="314" d="M0 -157v785h157v-785h-157zM0 785v785h157v-785h-157z" />
<glyph unicode="&#xa7;" d="M0 157v157h157v-157h-157zM0 628v314h157v-314h-157zM0 1099v157h157v-157h-157zM157 0v157h471v-157h-471zM157 471v157h157v-157h-157zM157 942v157h314v-157h-314zM157 1256v157h471v-157h-471zM314 314v157h314v-157h-314zM471 785v157h157v-157h-157zM628 157v157 h157v-157h-157zM628 471v314h157v-314h-157zM628 1099v157h157v-157h-157z" />
<glyph unicode="&#xa8;" d="M0 1727v157h157v-157h-157zM628 1727v157h157v-157h-157z" />
<glyph unicode="&#xa9;" horiz-adv-x="1413" d="M0 471v628h157v-628h-157zM157 314v157h157v-157h-157zM157 1099v157h157v-157h-157zM314 157v157h628v-157h-628zM314 628v314h157v-314h-157zM314 1256v157h628v-157h-628zM471 471v157h471v-157h-471zM471 942v157h471v-157h-471zM942 314v157h157v-157h-157z M942 1099v157h157v-157h-157zM1099 471v628h157v-628h-157z" />
<glyph unicode="&#xaa;" d="M0 1099v471h157v-471h-157zM157 942v157h314v-157h-314zM157 1570v157h471v-628h-157v471h-314zM628 942v157h157v-157h-157z" />
<glyph unicode="&#xab;" horiz-adv-x="1099" d="M0 471v314h157v-314h-157zM157 314v157h157v-157h-157zM157 785v157h157v-157h-157zM314 157v157h157v-157h-157zM314 942v157h157v-157h-157zM471 471v314h157v-314h-157zM628 314v157h157v-157h-157zM628 785v157h157v-157h-157zM785 157v157h157v-157h-157zM785 942 v157h157v-157h-157z" />
<glyph unicode="&#xac;" d="M0 628v157h785v-471h-157v314h-628z" />
<glyph unicode="&#xad;" d="M0 628v157h785v-157h-785z" />
<glyph unicode="&#xae;" horiz-adv-x="1413" d="M0 471v628h157v-628h-157zM157 314v157h157v-157h-157zM157 1099v157h157v-157h-157zM314 157v157h628v-157h-628zM314 471v628h471v-157h-314v-157h314v-157h-314v-157h-157zM314 1256v157h628v-157h-628zM785 471v157h157v-157h-157zM785 785v157h157v-157h-157z M942 314v157h157v-157h-157zM942 1099v157h157v-157h-157zM1099 471v628h157v-628h-157z" />
<glyph unicode="&#xaf;" d="M0 1727v157h785v-157h-785z" />
<glyph unicode="&#xb0;" horiz-adv-x="785" d="M0 1256v314h157v-314h-157zM157 1099v157h314v-157h-314zM157 1570v157h314v-157h-314zM471 1256v314h157v-314h-157z" />
<glyph unicode="&#xb1;" d="M0 0v157h785v-157h-785zM0 628v157h314v314h157v-314h314v-157h-314v-314h-157v314h-314z" />
<glyph unicode="&#xb2;" horiz-adv-x="785" d="M0 942v157h157v157h157v-157h314v-157h-628zM0 1413v157h157v-157h-157zM157 1570v157h314v-157h-314zM314 1256v157h157v-157h-157zM471 1413v157h157v-157h-157z" />
<glyph unicode="&#xb3;" horiz-adv-x="785" d="M0 1099v157h157v-157h-157zM0 1413v157h157v-157h-157zM157 942v157h314v-157h-314zM157 1570v157h314v-157h-314zM314 1256v157h157v-157h-157zM471 1099v157h157v-157h-157zM471 1413v157h157v-157h-157z" />
<glyph unicode="&#xb4;" horiz-adv-x="628" d="M0 942v157h157v-157h-157zM157 1099v157h157v-157h-157zM314 1256v157h157v-157h-157z" />
<glyph unicode="&#xb5;" d="M0 -314v1256h157v-785h314v-157h-314v-314h-157zM471 157v157h157v628h157v-942h-157v157h-157z" />
<glyph unicode="&#xb6;" d="M0 942v314h157v157h628v-1413h-157v1256h-157v-1256h-157v785h-157v157h-157z" />
<glyph unicode="&#xb7;" horiz-adv-x="314" d="M0 628v157h157v-157h-157z" />
<glyph unicode="&#xb8;" horiz-adv-x="785" d="M157 -157h314v-157h-314v157zM314 0v157h157v-157h-157zM471 0h157v-157h-157v157z" />
<glyph unicode="&#xb9;" horiz-adv-x="628" d="M0 942v157h157v314h-157v157h157v157h157v-628h157v-157h-471z" />
<glyph unicode="&#xba;" d="M0 1099v471h157v-471h-157zM157 942v157h471v-157h-471zM157 1570v157h471v-157h-471zM628 1099v471h157v-471h-157z" />
<glyph unicode="&#xbb;" horiz-adv-x="1099" d="M0 157v157h157v-157h-157zM0 942v157h157v-157h-157zM157 314v157h157v-157h-157zM157 785v157h157v-157h-157zM314 471v314h157v-314h-157zM471 157v157h157v-157h-157zM471 942v157h157v-157h-157zM628 314v157h157v-157h-157zM628 785v157h157v-157h-157zM785 471v314 h157v-314h-157z" />
<glyph unicode="&#xbc;" horiz-adv-x="1727" d="M0 785v157h157v314h-157v157h157v157h157v-628h157v-157h-471zM314 0v314h157v-314h-157zM471 314v314h157v-314h-157zM628 628v314h157v-314h-157zM785 942v314h157v-314h-157zM942 157v471h157v-314h157v314h-157v157h314v-471h157v-157h-157v-157h-157v157h-314z M942 1256v314h157v-314h-157z" />
<glyph unicode="&#xbd;" horiz-adv-x="1570" d="M0 785v157h157v314h-157v157h157v157h157v-628h157v-157h-471zM314 0v314h157v-314h-157zM471 314v314h157v-314h-157zM628 628v314h157v-314h-157zM785 942v314h157v-314h-157zM942 0v314h157v-157h314v-157h-471zM942 628v157h314v-157h-314zM942 1256v314h157v-314 h-157zM1099 314v157h157v-157h-157zM1256 471v157h157v-157h-157z" />
<glyph unicode="&#xbe;" horiz-adv-x="1727" d="M0 785v157h314v-157h-314zM0 1413v157h314v-157h-314zM157 1099v157h157v-157h-157zM314 0v314h157v-314h-157zM314 942v157h157v-157h-157zM314 1256v157h157v-157h-157zM471 314v314h157v-314h-157zM628 628v314h157v-314h-157zM785 942v314h157v-314h-157zM942 157 v471h157v-314h157v314h-157v157h314v-471h157v-157h-157v-157h-157v157h-314zM942 1256v314h157v-314h-157z" />
<glyph unicode="&#xbf;" d="M0 -157v471h157v-471h-157zM157 -157h471v-157h-471v157zM157 314v157h157v-157h-157zM314 471v314h157v-314h-157zM314 1099v157h157v-157h-157zM628 157h157v-314h-157v314z" />
<glyph unicode="&#xc0;" d="M0 0v1256h157v-628h471v628h157v-1256h-157v471h-471v-471h-157zM157 1256v157h471v-157h-471zM157 1727v157h314v-157h-314zM471 1570v157h157v-157h-157z" />
<glyph unicode="&#xc1;" d="M0 0v1256h157v-628h471v628h157v-1256h-157v471h-471v-471h-157zM157 1256v157h471v-157h-471zM157 1570v157h157v-157h-157zM314 1727v157h314v-157h-314z" />
<glyph unicode="&#xc2;" d="M0 0v1256h157v-628h471v628h157v-1256h-157v471h-471v-471h-157zM157 1256v157h471v-157h-471zM157 1570v157h157v-157h-157zM314 1727v157h157v-157h-157zM471 1570v157h157v-157h-157z" />
<glyph unicode="&#xc3;" horiz-adv-x="1099" d="M0 0v1256h157v-628h471v628h157v-1256h-157v471h-471v-471h-157zM0 1570v157h157v-157h-157zM157 1256v157h471v-157h-471zM157 1727v157h314v-157h-314zM471 1570v157h314v-157h-314zM785 1727v157h157v-157h-157z" />
<glyph unicode="&#xc4;" d="M0 0v1256h157v-628h471v628h157v-1256h-157v471h-471v-471h-157zM0 1727v157h157v-157h-157zM157 1256v157h471v-157h-471zM628 1727v157h157v-157h-157z" />
<glyph unicode="&#xc5;" d="M0 0v1256h157v-628h471v628h157v-1256h-157v471h-471v-471h-157zM157 1256v157h157v157h157v-157h157v-157h-471zM157 1570v157h157v-157h-157zM314 1727v157h157v-157h-157zM471 1570v157h157v-157h-157z" />
<glyph unicode="&#xc6;" horiz-adv-x="1570" d="M0 0v1256h157v-628h471v628h-471v157h1256v-157h-628v-471h471v-157h-471v-471h628v-157h-785v471h-471v-471h-157z" />
<glyph unicode="&#xc7;" d="M0 314v942h157v-942h-157zM157 -157h314v-157h-314v157zM157 157v157h471v-157h-157v-157h-157v157h-157zM157 1256v157h471v-157h-471zM471 0h157v-157h-157v157zM628 314v157h157v-157h-157zM628 1099v157h157v-157h-157z" />
<glyph unicode="&#xc8;" d="M0 0v1413h785v-157h-628v-471h471v-157h-471v-471h628v-157h-785zM157 1727v157h314v-157h-314zM471 1570v157h157v-157h-157z" />
<glyph unicode="&#xc9;" d="M0 0v1413h785v-157h-628v-471h471v-157h-471v-471h628v-157h-785zM157 1570v157h157v-157h-157zM314 1727v157h314v-157h-314z" />
<glyph unicode="&#xca;" d="M0 0v1413h785v-157h-628v-471h471v-157h-471v-471h628v-157h-785zM157 1570v157h157v-157h-157zM314 1727v157h157v-157h-157zM471 1570v157h157v-157h-157z" />
<glyph unicode="&#xcb;" d="M0 0v1413h785v-157h-628v-471h471v-157h-471v-471h628v-157h-785zM0 1727v157h157v-157h-157zM628 1727v157h157v-157h-157z" />
<glyph unicode="&#xcc;" d="M0 0v157h314v1099h-314v157h785v-157h-314v-1099h314v-157h-785zM157 1727v157h314v-157h-314zM471 1570v157h157v-157h-157z" />
<glyph unicode="&#xcd;" d="M0 0v157h314v1099h-314v157h785v-157h-314v-1099h314v-157h-785zM157 1570v157h157v-157h-157zM314 1727v157h314v-157h-314z" />
<glyph unicode="&#xce;" d="M0 0v157h314v1099h-314v157h785v-157h-314v-1099h314v-157h-785zM157 1570v157h157v-157h-157zM314 1727v157h157v-157h-157zM471 1570v157h157v-157h-157z" />
<glyph unicode="&#xcf;" d="M0 0v157h314v1099h-314v157h785v-157h-314v-1099h314v-157h-785zM0 1727v157h157v-157h-157zM628 1727v157h157v-157h-157z" />
<glyph unicode="&#xd0;" horiz-adv-x="1099" d="M0 628v157h157v628h628v-157h-471v-471h157v-157h-157v-471h471v-157h-628v628h-157zM785 157v1099h157v-1099h-157z" />
<glyph unicode="&#xd1;" horiz-adv-x="1099" d="M0 0v1413h157v-157h157v-314h-157v-942h-157zM0 1570v157h157v-157h-157zM157 1727v157h314v-157h-314zM314 628v314h157v-314h-157zM471 314v314h157v785h157v-1413h-157v314h-157zM471 1570v157h314v-157h-314zM785 1727v157h157v-157h-157z" />
<glyph unicode="&#xd2;" d="M0 157v1099h157v-1099h-157zM157 0v157h471v-157h-471zM157 1256v157h471v-157h-471zM157 1727v157h314v-157h-314zM471 1570v157h157v-157h-157zM628 157v1099h157v-1099h-157z" />
<glyph unicode="&#xd3;" d="M0 157v1099h157v-1099h-157zM157 0v157h471v-157h-471zM157 1256v157h471v-157h-471zM157 1570v157h157v-157h-157zM314 1727v157h314v-157h-314zM628 157v1099h157v-1099h-157z" />
<glyph unicode="&#xd4;" d="M0 157v1099h157v-1099h-157zM157 0v157h471v-157h-471zM157 1256v157h471v-157h-471zM157 1570v157h157v-157h-157zM314 1727v157h157v-157h-157zM471 1570v157h157v-157h-157zM628 157v1099h157v-1099h-157z" />
<glyph unicode="&#xd5;" horiz-adv-x="1099" d="M0 157v1099h157v-1099h-157zM0 1570v157h157v-157h-157zM157 0v157h471v-157h-471zM157 1256v157h471v-157h-471zM157 1727v157h314v-157h-314zM471 1570v157h314v-157h-314zM628 157v1099h157v-1099h-157zM785 1727v157h157v-157h-157z" />
<glyph unicode="&#xd6;" d="M0 157v1099h157v-1099h-157zM0 1727v157h157v-157h-157zM157 0v157h471v-157h-471zM157 1256v157h471v-157h-471zM628 157v1099h157v-1099h-157zM628 1727v157h157v-157h-157z" />
<glyph unicode="&#xd7;" d="M0 314v157h157v-157h-157zM0 942v157h157v-157h-157zM157 471v157h157v-157h-157zM157 785v157h157v-157h-157zM314 628v157h157v-157h-157zM471 471v157h157v-157h-157zM471 785v157h157v-157h-157zM628 314v157h157v-157h-157zM628 942v157h157v-157h-157z" />
<glyph unicode="&#xd8;" horiz-adv-x="1256" d="M0 0v157h157v-157h-157zM157 157v1099h157v-628h157v-314h-157v-157h-157zM314 0v157h471v-157h-471zM314 1256v157h471v-157h-471zM471 628v157h157v-157h-157zM628 785v314h157v157h157v-1099h-157v628h-157zM942 1256v157h157v-157h-157z" />
<glyph unicode="&#xd9;" d="M0 157v1256h157v-1256h-157zM157 0v157h471v-157h-471zM157 1727v157h314v-157h-314zM471 1570v157h157v-157h-157zM628 157v1256h157v-1256h-157z" />
<glyph unicode="&#xda;" d="M0 157v1256h157v-1256h-157zM157 0v157h471v-157h-471zM157 1570v157h157v-157h-157zM314 1727v157h314v-157h-314zM628 157v1256h157v-1256h-157z" />
<glyph unicode="&#xdb;" d="M0 157v1256h157v-1256h-157zM157 0v157h471v-157h-471zM157 1570v157h157v-157h-157zM314 1727v157h157v-157h-157zM471 1570v157h157v-157h-157zM628 157v1256h157v-1256h-157z" />
<glyph unicode="&#xdc;" d="M0 157v1256h157v-1256h-157zM0 1727v157h157v-157h-157zM157 0v157h471v-157h-471zM628 157v1256h157v-1256h-157zM628 1727v157h157v-157h-157z" />
<glyph unicode="&#xdd;" d="M0 942v471h157v-471h-157zM157 628v314h157v-314h-157zM157 1570v157h157v-157h-157zM314 0v628h157v-628h-157zM314 1727v157h314v-157h-314zM471 628v314h157v-314h-157zM628 942v471h157v-471h-157z" />
<glyph unicode="&#xde;" d="M0 0v1413h157v-157h471v-157h-471v-628h314v-157h-314v-314h-157zM471 471v157h157v-157h-157zM628 628v471h157v-471h-157z" />
<glyph unicode="&#xdf;" d="M0 0v1413h471v-157h-314v-471h314v-157h-314v-628h-157zM471 157v157h157v-157h-157zM471 471v157h157v-157h-157zM471 785v471h157v-471h-157zM628 314v157h157v-157h-157z" />
<glyph unicode="&#xe0;" d="M0 157v314h157v-314h-157zM157 0v157h471v314h-471v157h471v157h157v-785h-628zM157 785v157h471v-157h-471zM157 1256v157h314v-157h-314zM471 1099v157h157v-157h-157z" />
<glyph unicode="&#xe1;" d="M0 157v314h157v-314h-157zM157 0v157h471v314h-471v157h471v157h157v-785h-628zM157 785v157h471v-157h-471zM157 1099v157h157v-157h-157zM314 1256v157h314v-157h-314z" />
<glyph unicode="&#xe2;" d="M0 157v314h157v-314h-157zM157 0v157h471v314h-471v157h471v157h157v-785h-628zM157 785v157h471v-157h-471zM157 1099v157h157v-157h-157zM314 1256v157h157v-157h-157zM471 1099v157h157v-157h-157z" />
<glyph unicode="&#xe3;" horiz-adv-x="1099" d="M0 157v314h157v-314h-157zM0 1099v157h157v-157h-157zM157 0v157h471v314h-471v157h471v157h157v-785h-628zM157 785v157h471v-157h-471zM157 1256v157h314v-157h-314zM471 1099v157h314v-157h-314zM785 1256v157h157v-157h-157z" />
<glyph unicode="&#xe4;" d="M0 157v314h157v-314h-157zM0 1256v157h157v-157h-157zM157 0v157h471v314h-471v157h471v157h157v-785h-628zM157 785v157h471v-157h-471zM628 1256v157h157v-157h-157z" />
<glyph unicode="&#xe5;" d="M0 157v314h157v-314h-157zM157 0v157h471v314h-471v157h471v157h157v-785h-628zM157 785v157h471v-157h-471zM157 1256v157h157v-157h-157zM314 1099v157h157v-157h-157zM314 1413v157h157v-157h-157zM471 1256v157h157v-157h-157z" />
<glyph unicode="&#xe6;" horiz-adv-x="1570" d="M0 157v314h157v-314h-157zM157 0v157h471v-157h-471zM157 471v157h471v157h157v-157h471v157h157v-314h-628v-314h-157v314h-471zM157 785v157h471v-157h-471zM785 0v157h471v-157h-471zM785 785v157h471v-157h-471zM1256 157v157h157v-157h-157z" />
<glyph unicode="&#xe7;" d="M0 314v471h157v-471h-157zM157 -157h314v-157h-314v157zM157 157v157h471v-157h-157v-157h-157v157h-157zM157 785v157h471v-157h-471zM471 0h157v-157h-157v157zM628 314v157h157v-157h-157zM628 628v157h157v-157h-157z" />
<glyph unicode="&#xe8;" d="M0 157v628h157v-157h471v157h157v-314h-628v-314h-157zM157 0v157h471v-157h-471zM157 785v157h471v-157h-471zM157 1256v157h314v-157h-314zM471 1099v157h157v-157h-157zM628 157v157h157v-157h-157z" />
<glyph unicode="&#xe9;" d="M0 157v628h157v-157h471v157h157v-314h-628v-314h-157zM157 0v157h471v-157h-471zM157 785v157h471v-157h-471zM157 1099v157h157v-157h-157zM314 1256v157h314v-157h-314zM628 157v157h157v-157h-157z" />
<glyph unicode="&#xea;" d="M0 157v628h157v-157h471v157h157v-314h-628v-314h-157zM157 0v157h471v-157h-471zM157 785v157h471v-157h-471zM157 1099v157h157v-157h-157zM314 1256v157h157v-157h-157zM471 1099v157h157v-157h-157zM628 157v157h157v-157h-157z" />
<glyph unicode="&#xeb;" d="M0 157v628h157v-157h471v157h157v-314h-628v-314h-157zM0 1256v157h157v-157h-157zM157 0v157h471v-157h-471zM157 785v157h471v-157h-471zM628 157v157h157v-157h-157zM628 1256v157h157v-157h-157z" />
<glyph unicode="&#xec;" horiz-adv-x="628" d="M0 1256v157h314v-157h-314zM157 0v942h157v-942h-157zM314 1099v157h157v-157h-157z" />
<glyph unicode="&#xed;" horiz-adv-x="628" d="M0 1099v157h157v-157h-157zM157 0v942h157v-942h-157zM157 1256v157h314v-157h-314z" />
<glyph unicode="&#xee;" horiz-adv-x="628" d="M0 1099v157h157v-157h-157zM157 0v942h157v-942h-157zM157 1256v157h157v-157h-157zM314 1099v157h157v-157h-157z" />
<glyph unicode="&#xef;" d="M0 1256v157h157v-157h-157zM314 0v942h157v-942h-157zM628 1256v157h157v-157h-157z" />
<glyph unicode="&#xf0;" d="M0 157v471h157v-471h-157zM0 942v157h157v-157h-157zM0 1256v157h157v-157h-157zM157 0v157h471v-157h-471zM157 628v157h314v157h157v-314h-471zM157 1099v157h157v-157h-157zM314 942v157h157v-157h-157zM314 1256v157h157v-157h-157zM628 157v471h157v-471h-157z" />
<glyph unicode="&#xf1;" horiz-adv-x="1099" d="M0 0v942h628v-157h-471v-785h-157zM0 1099v157h157v-157h-157zM157 1256v157h314v-157h-314zM471 1099v157h314v-157h-314zM628 0v785h157v-785h-157zM785 1256v157h157v-157h-157z" />
<glyph unicode="&#xf2;" d="M0 157v628h157v-628h-157zM157 0v157h471v-157h-471zM157 785v157h471v-157h-471zM157 1256v157h314v-157h-314zM471 1099v157h157v-157h-157zM628 157v628h157v-628h-157z" />
<glyph unicode="&#xf3;" d="M0 157v628h157v-628h-157zM157 0v157h471v-157h-471zM157 785v157h471v-157h-471zM157 1099v157h157v-157h-157zM314 1256v157h314v-157h-314zM628 157v628h157v-628h-157z" />
<glyph unicode="&#xf4;" d="M0 157v628h157v-628h-157zM157 0v157h471v-157h-471zM157 785v157h471v-157h-471zM157 1099v157h157v-157h-157zM314 1256v157h157v-157h-157zM471 1099v157h157v-157h-157zM628 157v628h157v-628h-157z" />
<glyph unicode="&#xf5;" horiz-adv-x="1099" d="M0 157v628h157v-628h-157zM0 1099v157h157v-157h-157zM157 0v157h471v-157h-471zM157 785v157h471v-157h-471zM157 1256v157h314v-157h-314zM471 1099v157h314v-157h-314zM628 157v628h157v-628h-157zM785 1256v157h157v-157h-157z" />
<glyph unicode="&#xf6;" d="M0 157v628h157v-628h-157zM0 1256v157h157v-157h-157zM157 0v157h471v-157h-471zM157 785v157h471v-157h-471zM628 157v628h157v-628h-157zM628 1256v157h157v-157h-157z" />
<glyph unicode="&#xf7;" d="M0 628v157h785v-157h-785zM314 314v157h157v-157h-157zM314 942v157h157v-157h-157z" />
<glyph unicode="&#xf8;" horiz-adv-x="1256" d="M0 0v157h157v-157h-157zM157 157v628h157v-471h157v-157h314v-157h-471v157h-157zM314 785v157h471v-157h157v-628h-157v471h-157v157h-314zM471 314v314h157v-314h-157zM942 785v157h157v-157h-157z" />
<glyph unicode="&#xf9;" d="M0 157v785h157v-785h-157zM157 0v157h471v785h157v-942h-628zM157 1256v157h314v-157h-314zM471 1099v157h157v-157h-157z" />
<glyph unicode="&#xfa;" d="M0 157v785h157v-785h-157zM157 0v157h471v785h157v-942h-628zM157 1099v157h157v-157h-157zM314 1256v157h314v-157h-314z" />
<glyph unicode="&#xfb;" d="M0 157v785h157v-785h-157zM157 0v157h471v785h157v-942h-628zM157 1099v157h157v-157h-157zM314 1256v157h157v-157h-157zM471 1099v157h157v-157h-157z" />
<glyph unicode="&#xfc;" d="M0 157v785h157v-785h-157zM0 1256v157h157v-157h-157zM157 0v157h471v785h157v-942h-628zM628 1256v157h157v-157h-157z" />
<glyph unicode="&#xfd;" d="M0 0h157v-157h-157v157zM0 314v628h157v-628h-157zM157 157v157h471v628h157v-1099h-157v314h-471zM157 -157h471v-157h-471v157zM157 1099v157h157v-157h-157zM314 1256v157h314v-157h-314z" />
<glyph unicode="&#xfe;" d="M0 -314v1570h157v-314h471v-157h-471v-471h471v-157h-471v-471h-157zM628 314v471h157v-471h-157z" />
<glyph unicode="&#xff;" d="M0 0h157v-157h-157v157zM0 314v628h157v-628h-157zM0 1256v157h157v-157h-157zM157 157v157h471v628h157v-1099h-157v314h-471zM157 -157h471v-157h-471v157zM628 1256v157h157v-157h-157z" />
<glyph unicode="&#x2000;" />
<glyph unicode="&#x2001;" horiz-adv-x="1884" />
<glyph unicode="&#x2002;" />
<glyph unicode="&#x2003;" horiz-adv-x="1884" />
<glyph unicode="&#x2004;" horiz-adv-x="628" />
<glyph unicode="&#x2005;" horiz-adv-x="471" />
<glyph unicode="&#x2006;" horiz-adv-x="314" />
<glyph unicode="&#x2007;" horiz-adv-x="314" />
<glyph unicode="&#x2008;" horiz-adv-x="235" />
<glyph unicode="&#x2009;" horiz-adv-x="376" />
<glyph unicode="&#x200a;" horiz-adv-x="104" />
<glyph unicode="&#x2010;" d="M0 628v157h785v-157h-785z" />
<glyph unicode="&#x2011;" d="M0 628v157h785v-157h-785z" />
<glyph unicode="&#x2012;" d="M0 628v157h785v-157h-785z" />
<glyph unicode="&#x2013;" horiz-adv-x="1181" d="M0 628v157h1024v-157h-1024z" />
<glyph unicode="&#x2014;" horiz-adv-x="2205" d="M0 628v157h2048v-157h-2048z" />
<glyph unicode="&#x202f;" horiz-adv-x="376" />
<glyph unicode="&#x205f;" horiz-adv-x="471" />
<glyph unicode="&#x25fc;" horiz-adv-x="940" d="M0 0v940h940v-940h-940z" />
</font>
</defs>
</svg>
